<svg xmlns="http://www.w3.org/2000/svg" width="64" height="64" viewBox="0 0 256 288">
  <path fill="#512BD4" d="M255.569 84.452c-.002-4.83-1.035-9.098-3.124-12.761-2.052-3.602-5.125-6.621-9.247-9.008-34.025-19.619-68.083-39.178-102.097-58.817-9.17-5.294-18.061-5.101-27.163.269C82.01 23.845 49.12 43.404 16.076 62.973c-8.93 5.288-13.941 13.378-14.07 23.778v138.764c.129 10.4 5.14 18.49 14.07 23.778 33.044 19.569 65.934 39.128 98.862 58.838 9.102 5.37 17.993 5.563 27.163.269 34.014-19.639 68.072-39.198 102.097-58.817 4.122-2.387 7.195-5.406 9.247-9.008 2.089-3.663 3.122-7.931 3.124-12.761V84.452Z"/>
  <path fill="#FFF" d="M128.182 143.241L2.988 215.593c2.053 3.602 5.125 6.621 9.247 9.008 33.044 19.569 65.934 39.128 98.862 58.838 9.102 5.37 17.993 5.563 27.163.269 34.014-19.639 68.072-39.198 102.097-58.817 4.122-2.387 7.195-5.406 9.247-9.008L128.182 143.241Z"/>
  <path fill="#FFF" d="M255.569 84.452c-.002-4.83-1.035-9.098-3.124-12.761L128.182 143.241 253.044 215.593c2.089-3.663 3.122-7.931 3.124-12.761V84.452h-.599Z"/>
  <path fill="#FFF" d="M128.182 79.544c13.254 0 23.995 10.74 23.995 23.995 0 13.254-10.74 23.995-23.995 23.995-13.254 0-23.995-10.74-23.995-23.995 0-13.254 10.74-23.995 23.995-23.995Z"/>
  <path fill="#512BD4" d="M92.731 147.896c0 6.797 5.51 12.307 12.307 12.307h46.288c6.797 0 12.307-5.51 12.307-12.307 0-6.797-5.51-12.307-12.307-12.307h-46.288c-6.797 0-12.307 5.51-12.307 12.307Z"/>
</svg>