<svg xmlns="http://www.w3.org/2000/svg" width="64" height="64" viewBox="0 0 256 256">
  <path fill="#E34F26" d="M20 0h216l-19.615 220.121L127.962 256l-88.331-35.879L20 0Z"/>
  <path fill="#EF652A" d="M128 25.067v206.83l71.027-28.624L216.884 25.067H128Z"/>
  <path fill="#EBEBEB" d="M77.723 67.997H128v20.509H57.094l1.367 15.384H128v20.51H79.821l1.367 15.384H128v20.509H58.456l4.1 46.05L128 215.037v-21.901l-.533.178-35.611-9.616-2.278-25.53H69.067l4.478 50.146L128 215.037l54.455-6.723 7.589-85.089H90.578V102.716h105.29l1.367-15.384H90.578V67.823h105.29L199.356 52.44H77.723v15.557Z"/>
  <path fill="#FFF" d="M128 67.997v20.509h60.244l-1.367 15.384H128v20.51h57.51l-1.367 15.384H128v20.509h54.776l-7.59 85.089L128 215.037v21.901l65.456-25.703 4.1-46.05 7.589-85.089H199.356l1.367-15.384H128Z"/>
</svg>