<svg xmlns="http://www.w3.org/2000/svg" width="64" height="64" viewBox="0 0 256 256">
  <path fill="#CC2927" d="M239.042 97.024C230.531 97.024 224 103.555 224 112.066v31.876c0 8.511 6.531 15.042 15.042 15.042s15.042-6.531 15.042-15.042v-31.876c0-8.511-6.531-15.042-15.042-15.042Z"/>
  <path fill="#CC2927" d="M208.118 97.024h-47.076v62.959h47.076c8.511 0 15.042-6.531 15.042-15.042V112.066c0-8.511-6.531-15.042-15.042-15.042Z"/>
  <path fill="#A91E22" d="M144.066 97.024H97.024v62.959h47.042V97.024Z"/>
  <path fill="#F7931E" d="M96.958 97.024H49.916c-8.511 0-15.042 6.531-15.042 15.042v31.876c0 8.511 6.531 15.042 15.042 15.042h47.042V97.024Z"/>
  <path fill="#FFD83D" d="M16.958 97.024C8.447 97.024 1.916 103.555 1.916 112.066v31.876c0 8.511 6.531 15.042 15.042 15.042s15.042-6.531 15.042-15.042v-31.876c0-8.511-6.531-15.042-15.042-15.042Z"/>
  <path fill="#1BA1E2" d="M118 0C52.772 0 0 52.772 0 118s52.772 118 118 118 118-52.772 118-118S183.228 0 118 0zm0 224C61.065 224 16 178.935 16 122S61.065 20 118 20s102 45.065 102 102-45.065 102-102 102z"/>
  <path fill="#37474F" d="M128 48v32h80V48c0-17.673-14.327-32-32-32H64c-17.673 0-32 14.327-32 32v128c0 17.673 14.327 32 32 32h112c17.673 0 32-14.327 32-32v-32h-80v32H64V48h64z"/>
</svg>