<svg xmlns="http://www.w3.org/2000/svg" width="64" height="64" viewBox="0 0 256 256">
  <rect width="256" height="256" rx="60" fill="#239120"/>
  <path fill="#fff" d="M181.75 98.618c-6.939-12.054-19.872-20.132-34.94-20.132-22.077 0-39.97 17.893-39.97 39.97s17.893 39.97 39.97 39.97c15.068 0 28.001-8.078 34.94-20.132l17.46 10.08c-10.422 18.006-29.84 30.132-52.4 30.132-33.147 0-60.05-26.903-60.05-60.05s26.903-60.05 60.05-60.05c22.56 0 41.978 12.126 52.4 30.132l-17.46 10.08Z"/>
  <path fill="#fff" d="M200.218 88.538h8.04v7.22h7.22v8.04h-7.22v7.22h-8.04v-7.22h-7.22v-8.04h7.22v-7.22ZM200.218 118.7h8.04v7.22h7.22v8.04h-7.22v7.22h-8.04v-7.22h-7.22v-8.04h7.22v-7.22Z"/>
  <text x="128" y="200" text-anchor="middle" fill="#fff" font-family="Arial, sans-serif" font-size="20" font-weight="bold">C#</text>
</svg>