<svg xmlns="http://www.w3.org/2000/svg" width="64" height="64" viewBox="0 0 256 256">
  <rect width="256" height="256" rx="60" fill="#007acc"/>
  <path fill="#fff" d="M146.658 223.436c-11.229 0-20.781-1.728-28.657-5.184-7.875-3.456-13.931-7.488-18.167-12.096l9.216-14.976c3.744 3.744 8.64 6.912 14.688 9.504 6.048 2.592 12.384 3.888 19.008 3.888 6.624 0 11.808-1.152 15.552-3.456 3.744-2.304 5.616-5.472 5.616-9.504 0-2.88-.864-5.328-2.592-7.344-1.728-2.016-4.032-3.744-6.912-5.184-2.88-1.44-6.048-2.736-9.504-3.888l-10.368-3.456c-5.76-1.92-10.656-4.032-14.688-6.336-4.032-2.304-7.2-5.184-9.504-8.64-2.304-3.456-3.456-7.776-3.456-12.96 0-5.76 1.44-10.656 4.32-14.688 2.88-4.032 6.912-7.2 12.096-9.504 5.184-2.304 11.232-3.456 18.144-3.456 6.912 0 13.248 1.152 19.008 3.456 5.76 2.304 10.656 5.472 14.688 9.504l-8.352 15.552c-3.744-3.168-7.776-5.616-12.096-7.344-4.32-1.728-8.64-2.592-12.96-2.592-5.76 0-10.224 1.152-13.392 3.456-3.168 2.304-4.752 5.472-4.752 9.504 0 2.304.576 4.32 1.728 6.048 1.152 1.728 2.88 3.168 5.184 4.32 2.304 1.152 5.184 2.304 8.64 3.456l10.368 3.456c6.336 2.16 11.52 4.464 15.552 6.912 4.032 2.448 7.2 5.472 9.504 9.072 2.304 3.6 3.456 8.208 3.456 13.824 0 6.336-1.584 11.664-4.752 15.984-3.168 4.32-7.632 7.632-13.392 9.936-5.76 2.304-12.672 3.456-20.736 3.456Z"/>
  <path fill="#fff" d="M79.686 78.432V97.2h42.336v18.72H79.686v107.712H58.95V115.92H19.35V97.2h39.6V78.432h20.736Z"/>
</svg>