<svg width="400" height="300" viewBox="0 0 400 300" xmlns="http://www.w3.org/2000/svg">
  <rect width="400" height="300" fill="#f8f9fa"/>
  <rect x="20" y="20" width="360" height="260" fill="#e9ecef" stroke="#dee2e6" stroke-width="2" rx="8"/>
  
  <!-- Todo List Icon -->
  <g transform="translate(170, 80)">
    <rect x="0" y="0" width="60" height="80" fill="white" stroke="#dee2e6" stroke-width="2" rx="4"/>
    <rect x="8" y="12" width="44" height="3" fill="#28a745" rx="1"/>
    <rect x="8" y="20" width="36" height="3" fill="#6c757d" rx="1"/>
    <rect x="8" y="28" width="40" height="3" fill="#6c757d" rx="1"/>
    
    <circle cx="12" cy="40" r="2" fill="#28a745"/>
    <rect x="18" y="38" width="26" height="3" fill="#6c757d" rx="1"/>
    
    <circle cx="12" cy="50" r="2" fill="#28a745"/>
    <rect x="18" y="48" width="20" height="3" fill="#6c757d" rx="1"/>
    
    <circle cx="12" cy="60" r="2" fill="#dc3545"/>
    <rect x="18" y="58" width="30" height="3" fill="#6c757d" rx="1"/>
  </g>
  
  <!-- Title -->
  <text x="200" y="180" text-anchor="middle" font-family="Arial, sans-serif" font-size="18" font-weight="bold" fill="#495057">
    Todo List Moderno
  </text>
  
  <!-- Subtitle -->
  <text x="200" y="200" text-anchor="middle" font-family="Arial, sans-serif" font-size="14" fill="#6c757d">
    Task Management
  </text>
  
  <!-- Tech Icons -->
  <rect x="145" y="220" width="20" height="20" fill="#61dafb" rx="2"/>
  <text x="155" y="234" text-anchor="middle" font-family="Arial, sans-serif" font-size="10" fill="black">R</text>
  
  <rect x="170" y="220" width="20" height="20" fill="#3178c6" rx="2"/>
  <text x="180" y="234" text-anchor="middle" font-family="Arial, sans-serif" font-size="10" fill="white">T</text>
  
  <rect x="195" y="220" width="20" height="20" fill="#db7093" rx="2"/>
  <text x="205" y="234" text-anchor="middle" font-family="Arial, sans-serif" font-size="10" fill="white">S</text>
  
  <rect x="220" y="220" width="20" height="20" fill="#f7df1e" rx="2"/>
  <text x="230" y="234" text-anchor="middle" font-family="Arial, sans-serif" font-size="10" fill="black">L</text>
  
  <!-- Footer -->
  <text x="200" y="270" text-anchor="middle" font-family="Arial, sans-serif" font-size="12" fill="#adb5bd">
    Application Screenshot
  </text>
</svg>